<svg version="1.1"
     baseProfile="full"
     width="100" height="100"
     xmlns="http://www.w3.org/2000/svg">

<rect x="20" y="5" rx="5" ry="5" width="32" height="48" stroke="black" fill="white"/>

<rect x="46" y="19" rx="3" ry="3" width="12" height="6" stroke="black" fill="white"/>
<rect x="46" y="25" rx="3" ry="3" width="12" height="6" stroke="black" fill="white"/>
<rect x="46" y="31" rx="3" ry="3" width="12" height="6" stroke="black" fill="white"/>
<rect x="46" y="37" rx="3" ry="3" width="12" height="6" stroke="black" fill="white"/>

<path d="M20 48 
         A 6 6 0 0 1 14 42
         L 14 21
         A 6 6 0 0 1 20 15
         L 27 15
         A 10 5 0 0 1 27 21
         L 20 21 Z" stroke="black" fill="white"/>
<text x="21" y="36">+1</text>
</svg>
